<svg xmlns="http://www.w3.org/2000/svg" viewBox="0 0 120 90" width="120" height="90" role="img" aria-labelledby="title desc">
  <title id="title">gjc red claw mark</title>
  <desc id="desc">A red crustacean claw and shell icon for the gjc coding agent.</desc>
  <defs>
    <linearGradient id="shell" x1="18" y1="12" x2="100" y2="82" gradientUnits="userSpaceOnUse">
      <stop offset="0" stop-color="#ff8a65"/>
      <stop offset="0.42" stop-color="#ef4444"/>
      <stop offset="1" stop-color="#7f1d1d"/>
    </linearGradient>
    <linearGradient id="highlight" x1="36" y1="10" x2="78" y2="48" gradientUnits="userSpaceOnUse">
      <stop offset="0" stop-color="#fff1e8" stop-opacity="0.95"/>
      <stop offset="1" stop-color="#ffd7a8" stop-opacity="0.15"/>
    </linearGradient>
  </defs>
  <rect width="120" height="90" rx="18" fill="#110b0b"/>
  <path d="M28 38C17 30 15 18 23 11c10-8 25 1 24 16l-9-4c-1-7-7-10-11-6-5 4-2 12 6 17l7 5-9 7-3-8Z" fill="url(#shell)"/>
  <path d="M92 38c11-8 13-20 5-27-10-8-25 1-24 16l9-4c1-7 7-10 11-6 5 4 2 12-6 17l-7 5 9 7 3-8Z" fill="url(#shell)"/>
  <path d="M30 49c5-18 19-28 30-28s25 10 30 28c3 12-5 28-30 28S27 61 30 49Z" fill="url(#shell)"/>
  <path d="M39 46c4-11 12-17 21-17s17 6 21 17c2 8-5 18-21 18S37 54 39 46Z" fill="url(#highlight)"/>
  <circle cx="50" cy="47" r="4" fill="#110b0b"/>
  <circle cx="70" cy="47" r="4" fill="#110b0b"/>
  <path d="M52 61c5 4 11 4 16 0" fill="none" stroke="#ffd7a8" stroke-width="4" stroke-linecap="round"/>
  <path d="M37 68c-8 7-18 8-24 2" fill="none" stroke="#ef4444" stroke-width="9" stroke-linecap="round"/>
  <path d="M83 68c8 7 18 8 24 2" fill="none" stroke="#ef4444" stroke-width="9" stroke-linecap="round"/>
</svg>
